<svg width="868" height="603" viewBox="0 0 868 603" fill="none" xmlns="http://www.w3.org/2000/svg">
<rect x="79" y="101" width="100" height="100" rx="10" fill="#3178C6"/>
<path d="M100.474 173.364C99.3532 173.364 98.3911 172.962 97.5881 172.159C96.785 171.356 96.3835 170.394 96.3835 169.273C96.3835 168.152 96.785 167.189 97.5881 166.386C98.3911 165.583 99.3532 165.182 100.474 165.182C101.596 165.182 102.558 165.583 103.361 166.386C104.164 167.189 104.565 168.152 104.565 169.273C104.565 170.015 104.376 170.697 103.997 171.318C103.634 171.939 103.141 172.439 102.52 172.818C101.914 173.182 101.232 173.364 100.474 173.364ZM129.372 138.091V142.636H111.281V138.091H129.372ZM116.554 129.727H121.918V163C121.918 164.515 122.137 165.652 122.577 166.409C123.031 167.152 123.607 167.652 124.304 167.909C125.016 168.152 125.766 168.273 126.554 168.273C127.145 168.273 127.63 168.242 128.009 168.182C128.387 168.106 128.69 168.045 128.918 168L130.009 172.818C129.645 172.955 129.137 173.091 128.486 173.227C127.834 173.379 127.009 173.455 126.009 173.455C124.493 173.455 123.009 173.129 121.554 172.477C120.115 171.826 118.918 170.833 117.963 169.5C117.024 168.167 116.554 166.485 116.554 164.455V129.727ZM161.543 145.909L156.724 147.273C156.421 146.47 155.974 145.689 155.384 144.932C154.808 144.159 154.02 143.523 153.02 143.023C152.02 142.523 150.74 142.273 149.179 142.273C147.043 142.273 145.262 142.765 143.838 143.75C142.429 144.72 141.724 145.955 141.724 147.455C141.724 148.788 142.209 149.841 143.179 150.614C144.149 151.386 145.664 152.03 147.724 152.545L152.906 153.818C156.027 154.576 158.353 155.735 159.884 157.295C161.414 158.841 162.179 160.833 162.179 163.273C162.179 165.273 161.603 167.061 160.452 168.636C159.315 170.212 157.724 171.455 155.679 172.364C153.634 173.273 151.255 173.727 148.543 173.727C144.982 173.727 142.035 172.955 139.702 171.409C137.368 169.864 135.891 167.606 135.27 164.636L140.361 163.364C140.846 165.242 141.762 166.652 143.111 167.591C144.474 168.53 146.255 169 148.452 169C150.952 169 152.937 168.47 154.406 167.409C155.891 166.333 156.634 165.045 156.634 163.545C156.634 162.333 156.209 161.318 155.361 160.5C154.512 159.667 153.209 159.045 151.452 158.636L145.634 157.273C142.437 156.515 140.088 155.341 138.588 153.75C137.103 152.144 136.361 150.136 136.361 147.727C136.361 145.758 136.914 144.015 138.02 142.5C139.141 140.985 140.664 139.795 142.588 138.932C144.527 138.068 146.724 137.636 149.179 137.636C152.634 137.636 155.346 138.394 157.315 139.909C159.3 141.424 160.709 143.424 161.543 145.909Z" fill="white"/>
<rect x="79" y="329" width="100" height="100" rx="10" fill="#F4DC2C"/>
<path d="M104.193 401.364C103.072 401.364 102.11 400.962 101.307 400.159C100.504 399.356 100.102 398.394 100.102 397.273C100.102 396.152 100.504 395.189 101.307 394.386C102.11 393.583 103.072 393.182 104.193 393.182C105.314 393.182 106.277 393.583 107.08 394.386C107.883 395.189 108.284 396.152 108.284 397.273C108.284 398.015 108.095 398.697 107.716 399.318C107.352 399.939 106.86 400.439 106.239 400.818C105.633 401.182 104.951 401.364 104.193 401.364ZM117.909 366.091H123.273V403.545C123.273 405.697 122.902 407.561 122.159 409.136C121.432 410.712 120.326 411.932 118.841 412.795C117.371 413.659 115.515 414.091 113.273 414.091C113.091 414.091 112.909 414.091 112.727 414.091C112.545 414.091 112.364 414.091 112.182 414.091V409.091C112.364 409.091 112.53 409.091 112.682 409.091C112.833 409.091 113 409.091 113.182 409.091C114.818 409.091 116.015 408.606 116.773 407.636C117.53 406.682 117.909 405.318 117.909 403.545V366.091ZM120.545 360.273C119.5 360.273 118.598 359.917 117.841 359.205C117.098 358.492 116.727 357.636 116.727 356.636C116.727 355.636 117.098 354.78 117.841 354.068C118.598 353.356 119.5 353 120.545 353C121.591 353 122.485 353.356 123.227 354.068C123.985 354.78 124.364 355.636 124.364 356.636C124.364 357.636 123.985 358.492 123.227 359.205C122.485 359.917 121.591 360.273 120.545 360.273ZM157.824 373.909L153.006 375.273C152.703 374.47 152.256 373.689 151.665 372.932C151.089 372.159 150.301 371.523 149.301 371.023C148.301 370.523 147.021 370.273 145.46 370.273C143.324 370.273 141.544 370.765 140.119 371.75C138.71 372.72 138.006 373.955 138.006 375.455C138.006 376.788 138.491 377.841 139.46 378.614C140.43 379.386 141.945 380.03 144.006 380.545L149.188 381.818C152.309 382.576 154.634 383.735 156.165 385.295C157.695 386.841 158.46 388.833 158.46 391.273C158.46 393.273 157.884 395.061 156.733 396.636C155.597 398.212 154.006 399.455 151.96 400.364C149.915 401.273 147.536 401.727 144.824 401.727C141.263 401.727 138.316 400.955 135.983 399.409C133.65 397.864 132.172 395.606 131.551 392.636L136.642 391.364C137.127 393.242 138.044 394.652 139.392 395.591C140.756 396.53 142.536 397 144.733 397C147.233 397 149.218 396.47 150.688 395.409C152.172 394.333 152.915 393.045 152.915 391.545C152.915 390.333 152.491 389.318 151.642 388.5C150.794 387.667 149.491 387.045 147.733 386.636L141.915 385.273C138.718 384.515 136.369 383.341 134.869 381.75C133.384 380.144 132.642 378.136 132.642 375.727C132.642 373.758 133.195 372.015 134.301 370.5C135.422 368.985 136.945 367.795 138.869 366.932C140.809 366.068 143.006 365.636 145.46 365.636C148.915 365.636 151.627 366.394 153.597 367.909C155.581 369.424 156.991 371.424 157.824 373.909Z" fill="black"/>
<rect x="704" y="276" width="130" height="100" rx="10" fill="#447DFF"/>
<path d="M717.318 348.364C716.197 348.364 715.235 347.962 714.432 347.159C713.629 346.356 713.227 345.394 713.227 344.273C713.227 343.152 713.629 342.189 714.432 341.386C715.235 340.583 716.197 340.182 717.318 340.182C718.439 340.182 719.402 340.583 720.205 341.386C721.008 342.189 721.409 343.152 721.409 344.273C721.409 345.015 721.22 345.697 720.841 346.318C720.477 346.939 719.985 347.439 719.364 347.818C718.758 348.182 718.076 348.364 717.318 348.364ZM731.034 348V313.091H736.216V318.545H736.67C737.398 316.682 738.572 315.235 740.193 314.205C741.814 313.159 743.761 312.636 746.034 312.636C748.337 312.636 750.254 313.159 751.784 314.205C753.33 315.235 754.534 316.682 755.398 318.545H755.761C756.655 316.742 757.996 315.311 759.784 314.25C761.572 313.174 763.716 312.636 766.216 312.636C769.337 312.636 771.89 313.614 773.875 315.568C775.86 317.508 776.852 320.53 776.852 324.636V348H771.489V324.636C771.489 322.061 770.784 320.22 769.375 319.114C767.966 318.008 766.307 317.455 764.398 317.455C761.943 317.455 760.042 318.197 758.693 319.682C757.345 321.152 756.67 323.015 756.67 325.273V348H751.216V324.091C751.216 322.106 750.572 320.508 749.284 319.295C747.996 318.068 746.337 317.455 744.307 317.455C742.913 317.455 741.61 317.826 740.398 318.568C739.201 319.311 738.231 320.341 737.489 321.659C736.761 322.962 736.398 324.47 736.398 326.182V348H731.034ZM799.841 348.727C796.932 348.727 794.364 347.992 792.136 346.523C789.909 345.038 788.167 342.947 786.909 340.25C785.652 337.538 785.023 334.333 785.023 330.636C785.023 326.97 785.652 323.788 786.909 321.091C788.167 318.394 789.917 316.311 792.159 314.841C794.402 313.371 796.992 312.636 799.932 312.636C802.205 312.636 804 313.015 805.318 313.773C806.652 314.515 807.667 315.364 808.364 316.318C809.076 317.258 809.629 318.03 810.023 318.636H810.477V301.455H815.841V348H810.659V342.636H810.023C809.629 343.273 809.068 344.076 808.341 345.045C807.614 346 806.576 346.856 805.227 347.614C803.879 348.356 802.083 348.727 799.841 348.727ZM800.568 343.909C802.72 343.909 804.538 343.348 806.023 342.227C807.508 341.091 808.636 339.523 809.409 337.523C810.182 335.508 810.568 333.182 810.568 330.545C810.568 327.939 810.189 325.659 809.432 323.705C808.674 321.735 807.553 320.205 806.068 319.114C804.583 318.008 802.75 317.455 800.568 317.455C798.295 317.455 796.402 318.038 794.886 319.205C793.386 320.356 792.258 321.924 791.5 323.909C790.758 325.879 790.386 328.091 790.386 330.545C790.386 333.03 790.765 335.288 791.523 337.318C792.295 339.333 793.432 340.939 794.932 342.136C796.447 343.318 798.326 343.909 800.568 343.909Z" fill="white"/>
<rect x="684" y="436" width="130" height="100" rx="10" fill="#3F4E71"/>
<path d="M704.474 508.364C703.353 508.364 702.391 507.962 701.588 507.159C700.785 506.356 700.384 505.394 700.384 504.273C700.384 503.152 700.785 502.189 701.588 501.386C702.391 500.583 703.353 500.182 704.474 500.182C705.596 500.182 706.558 500.583 707.361 501.386C708.164 502.189 708.565 503.152 708.565 504.273C708.565 505.015 708.376 505.697 707.997 506.318C707.634 506.939 707.141 507.439 706.52 507.818C705.914 508.182 705.232 508.364 704.474 508.364ZM733.372 473.091V477.636H715.281V473.091H733.372ZM720.554 464.727H725.918V498C725.918 499.515 726.137 500.652 726.577 501.409C727.031 502.152 727.607 502.652 728.304 502.909C729.016 503.152 729.766 503.273 730.554 503.273C731.145 503.273 731.63 503.242 732.009 503.182C732.387 503.106 732.69 503.045 732.918 503L734.009 507.818C733.645 507.955 733.137 508.091 732.486 508.227C731.834 508.379 731.009 508.455 730.009 508.455C728.493 508.455 727.009 508.129 725.554 507.477C724.115 506.826 722.918 505.833 721.963 504.5C721.024 503.167 720.554 501.485 720.554 499.455V464.727ZM745.44 473.091L753.804 487.364L762.168 473.091H768.349L757.077 490.545L768.349 508H762.168L753.804 494.455L745.44 508H739.259L750.349 490.545L739.259 473.091H745.44ZM791.185 473.091V477.636H773.094V473.091H791.185ZM778.366 464.727H783.73V498C783.73 499.515 783.95 500.652 784.389 501.409C784.844 502.152 785.42 502.652 786.116 502.909C786.829 503.152 787.579 503.273 788.366 503.273C788.957 503.273 789.442 503.242 789.821 503.182C790.2 503.106 790.503 503.045 790.73 503L791.821 507.818C791.457 507.955 790.95 508.091 790.298 508.227C789.647 508.379 788.821 508.455 787.821 508.455C786.306 508.455 784.821 508.129 783.366 507.477C781.927 506.826 780.73 505.833 779.776 504.5C778.836 503.167 778.366 501.485 778.366 499.455V464.727Z" fill="white"/>
<rect x="693" y="132" width="175" height="100" rx="10" fill="#E54C20"/>
<path d="M711.068 204.364C709.947 204.364 708.985 203.962 708.182 203.159C707.379 202.356 706.977 201.394 706.977 200.273C706.977 199.152 707.379 198.189 708.182 197.386C708.985 196.583 709.947 196.182 711.068 196.182C712.189 196.182 713.152 196.583 713.955 197.386C714.758 198.189 715.159 199.152 715.159 200.273C715.159 201.015 714.97 201.697 714.591 202.318C714.227 202.939 713.735 203.439 713.114 203.818C712.508 204.182 711.826 204.364 711.068 204.364ZM730.148 183V204H724.784V157.455H730.148V174.545H730.602C731.42 172.742 732.648 171.311 734.284 170.25C735.936 169.174 738.133 168.636 740.875 168.636C743.254 168.636 745.337 169.114 747.125 170.068C748.913 171.008 750.299 172.455 751.284 174.409C752.284 176.348 752.784 178.818 752.784 181.818V204H747.42V182.182C747.42 179.409 746.701 177.265 745.261 175.75C743.837 174.22 741.86 173.455 739.33 173.455C737.572 173.455 735.996 173.826 734.602 174.568C733.223 175.311 732.133 176.394 731.33 177.818C730.542 179.242 730.148 180.97 730.148 183ZM777.778 169.091V173.636H759.688V169.091H777.778ZM764.96 160.727H770.324V194C770.324 195.515 770.544 196.652 770.983 197.409C771.438 198.152 772.013 198.652 772.71 198.909C773.422 199.152 774.172 199.273 774.96 199.273C775.551 199.273 776.036 199.242 776.415 199.182C776.794 199.106 777.097 199.045 777.324 199L778.415 203.818C778.051 203.955 777.544 204.091 776.892 204.227C776.241 204.379 775.415 204.455 774.415 204.455C772.9 204.455 771.415 204.129 769.96 203.477C768.521 202.826 767.324 201.833 766.369 200.5C765.43 199.167 764.96 197.485 764.96 195.455V160.727ZM785.847 204V169.091H791.028V174.545H791.483C792.21 172.682 793.384 171.235 795.006 170.205C796.627 169.159 798.574 168.636 800.847 168.636C803.15 168.636 805.066 169.159 806.597 170.205C808.142 171.235 809.347 172.682 810.21 174.545H810.574C811.468 172.742 812.809 171.311 814.597 170.25C816.384 169.174 818.528 168.636 821.028 168.636C824.15 168.636 826.703 169.614 828.688 171.568C830.672 173.508 831.665 176.53 831.665 180.636V204H826.301V180.636C826.301 178.061 825.597 176.22 824.188 175.114C822.778 174.008 821.119 173.455 819.21 173.455C816.756 173.455 814.854 174.197 813.506 175.682C812.157 177.152 811.483 179.015 811.483 181.273V204H806.028V180.091C806.028 178.106 805.384 176.508 804.097 175.295C802.809 174.068 801.15 173.455 799.119 173.455C797.725 173.455 796.422 173.826 795.21 174.568C794.013 175.311 793.044 176.341 792.301 177.659C791.574 178.962 791.21 180.47 791.21 182.182V204H785.847ZM846.835 157.455V204H841.472V157.455H846.835Z" fill="white"/>
<rect x="360" y="495" width="175" height="100" rx="10" fill="#FF5252"/>
<path d="M373.287 567.364C372.166 567.364 371.204 566.962 370.401 566.159C369.598 565.356 369.196 564.394 369.196 563.273C369.196 562.152 369.598 561.189 370.401 560.386C371.204 559.583 372.166 559.182 373.287 559.182C374.408 559.182 375.37 559.583 376.173 560.386C376.976 561.189 377.378 562.152 377.378 563.273C377.378 564.015 377.188 564.697 376.81 565.318C376.446 565.939 375.954 566.439 375.332 566.818C374.726 567.182 374.045 567.364 373.287 567.364ZM390.457 580.091C389.548 580.091 388.738 580.015 388.026 579.864C387.313 579.727 386.821 579.591 386.548 579.455L387.912 574.727C389.215 575.061 390.366 575.182 391.366 575.091C392.366 575 393.253 574.553 394.026 573.75C394.813 572.962 395.533 571.682 396.185 569.909L397.185 567.182L384.276 532.091H390.094L399.73 559.909H400.094L409.73 532.091H415.548L400.73 572.091C400.063 573.894 399.238 575.386 398.253 576.568C397.268 577.765 396.124 578.652 394.821 579.227C393.533 579.803 392.079 580.091 390.457 580.091ZM431.838 567.818C429.626 567.818 427.618 567.402 425.815 566.568C424.012 565.72 422.58 564.5 421.52 562.909C420.459 561.303 419.929 559.364 419.929 557.091C419.929 555.091 420.323 553.47 421.111 552.227C421.899 550.97 422.952 549.985 424.27 549.273C425.588 548.561 427.043 548.03 428.634 547.682C430.24 547.318 431.853 547.03 433.474 546.818C435.596 546.545 437.315 546.341 438.634 546.205C439.967 546.053 440.937 545.803 441.543 545.455C442.164 545.106 442.474 544.5 442.474 543.636V543.455C442.474 541.212 441.861 539.47 440.634 538.227C439.421 536.985 437.58 536.364 435.111 536.364C432.55 536.364 430.543 536.924 429.088 538.045C427.634 539.167 426.611 540.364 426.02 541.636L420.929 539.818C421.838 537.697 423.05 536.045 424.565 534.864C426.096 533.667 427.762 532.833 429.565 532.364C431.384 531.879 433.171 531.636 434.929 531.636C436.05 531.636 437.338 531.773 438.793 532.045C440.262 532.303 441.679 532.841 443.043 533.659C444.421 534.477 445.565 535.712 446.474 537.364C447.384 539.015 447.838 541.227 447.838 544V567H442.474V562.273H442.202C441.838 563.03 441.232 563.841 440.384 564.705C439.535 565.568 438.406 566.303 436.997 566.909C435.588 567.515 433.868 567.818 431.838 567.818ZM432.656 563C434.777 563 436.565 562.583 438.02 561.75C439.49 560.917 440.596 559.841 441.338 558.523C442.096 557.205 442.474 555.818 442.474 554.364V549.455C442.247 549.727 441.747 549.977 440.974 550.205C440.217 550.417 439.338 550.606 438.338 550.773C437.353 550.924 436.391 551.061 435.452 551.182C434.527 551.288 433.777 551.379 433.202 551.455C431.808 551.636 430.505 551.932 429.293 552.341C428.096 552.735 427.126 553.333 426.384 554.136C425.656 554.924 425.293 556 425.293 557.364C425.293 559.227 425.982 560.636 427.361 561.591C428.755 562.53 430.52 563 432.656 563ZM457.628 567V532.091H462.81V537.545H463.264C463.991 535.682 465.166 534.235 466.787 533.205C468.408 532.159 470.355 531.636 472.628 531.636C474.931 531.636 476.848 532.159 478.378 533.205C479.923 534.235 481.128 535.682 481.991 537.545H482.355C483.249 535.742 484.59 534.311 486.378 533.25C488.166 532.174 490.31 531.636 492.81 531.636C495.931 531.636 498.484 532.614 500.469 534.568C502.454 536.508 503.446 539.53 503.446 543.636V567H498.082V543.636C498.082 541.061 497.378 539.22 495.969 538.114C494.56 537.008 492.901 536.455 490.991 536.455C488.537 536.455 486.635 537.197 485.287 538.682C483.938 540.152 483.264 542.015 483.264 544.273V567H477.81V543.091C477.81 541.106 477.166 539.508 475.878 538.295C474.59 537.068 472.931 536.455 470.901 536.455C469.507 536.455 468.204 536.826 466.991 537.568C465.795 538.311 464.825 539.341 464.082 540.659C463.355 541.962 462.991 543.47 462.991 545.182V567H457.628ZM518.616 520.455V567H513.253V520.455H518.616Z" fill="white"/>
<rect x="360" y="379" width="175" height="100" rx="10" fill="#81B148"/>
<path d="M381.881 451.364C380.759 451.364 379.797 450.962 378.994 450.159C378.191 449.356 377.79 448.394 377.79 447.273C377.79 446.152 378.191 445.189 378.994 444.386C379.797 443.583 380.759 443.182 381.881 443.182C383.002 443.182 383.964 443.583 384.767 444.386C385.57 445.189 385.972 446.152 385.972 447.273C385.972 448.015 385.782 448.697 385.403 449.318C385.04 449.939 384.547 450.439 383.926 450.818C383.32 451.182 382.638 451.364 381.881 451.364ZM395.597 416.091H400.96V453.545C400.96 455.697 400.589 457.561 399.847 459.136C399.119 460.712 398.013 461.932 396.528 462.795C395.059 463.659 393.203 464.091 390.96 464.091C390.778 464.091 390.597 464.091 390.415 464.091C390.233 464.091 390.051 464.091 389.869 464.091V459.091C390.051 459.091 390.218 459.091 390.369 459.091C390.521 459.091 390.688 459.091 390.869 459.091C392.506 459.091 393.703 458.606 394.46 457.636C395.218 456.682 395.597 455.318 395.597 453.545V416.091ZM398.233 410.273C397.188 410.273 396.286 409.917 395.528 409.205C394.786 408.492 394.415 407.636 394.415 406.636C394.415 405.636 394.786 404.78 395.528 404.068C396.286 403.356 397.188 403 398.233 403C399.278 403 400.172 403.356 400.915 404.068C401.672 404.78 402.051 405.636 402.051 406.636C402.051 407.636 401.672 408.492 400.915 409.205C400.172 409.917 399.278 410.273 398.233 410.273ZM435.511 423.909L430.693 425.273C430.39 424.47 429.943 423.689 429.352 422.932C428.777 422.159 427.989 421.523 426.989 421.023C425.989 420.523 424.708 420.273 423.148 420.273C421.011 420.273 419.231 420.765 417.807 421.75C416.398 422.72 415.693 423.955 415.693 425.455C415.693 426.788 416.178 427.841 417.148 428.614C418.117 429.386 419.633 430.03 421.693 430.545L426.875 431.818C429.996 432.576 432.322 433.735 433.852 435.295C435.383 436.841 436.148 438.833 436.148 441.273C436.148 443.273 435.572 445.061 434.42 446.636C433.284 448.212 431.693 449.455 429.648 450.364C427.602 451.273 425.223 451.727 422.511 451.727C418.951 451.727 416.004 450.955 413.67 449.409C411.337 447.864 409.86 445.606 409.239 442.636L414.33 441.364C414.814 443.242 415.731 444.652 417.08 445.591C418.443 446.53 420.223 447 422.42 447C424.92 447 426.905 446.47 428.375 445.409C429.86 444.333 430.602 443.045 430.602 441.545C430.602 440.333 430.178 439.318 429.33 438.5C428.481 437.667 427.178 437.045 425.42 436.636L419.602 435.273C416.405 434.515 414.057 433.341 412.557 431.75C411.072 430.144 410.33 428.136 410.33 425.727C410.33 423.758 410.883 422.015 411.989 420.5C413.11 418.985 414.633 417.795 416.557 416.932C418.496 416.068 420.693 415.636 423.148 415.636C426.602 415.636 429.314 416.394 431.284 417.909C433.269 419.424 434.678 421.424 435.511 423.909ZM458.403 451.727C455.252 451.727 452.487 450.977 450.108 449.477C447.744 447.977 445.896 445.879 444.562 443.182C443.244 440.485 442.585 437.333 442.585 433.727C442.585 430.091 443.244 426.917 444.562 424.205C445.896 421.492 447.744 419.386 450.108 417.886C452.487 416.386 455.252 415.636 458.403 415.636C461.555 415.636 464.313 416.386 466.676 417.886C469.055 419.386 470.903 421.492 472.222 424.205C473.555 426.917 474.222 430.091 474.222 433.727C474.222 437.333 473.555 440.485 472.222 443.182C470.903 445.879 469.055 447.977 466.676 449.477C464.313 450.977 461.555 451.727 458.403 451.727ZM458.403 446.909C460.797 446.909 462.767 446.295 464.312 445.068C465.858 443.841 467.002 442.227 467.744 440.227C468.487 438.227 468.858 436.061 468.858 433.727C468.858 431.394 468.487 429.22 467.744 427.205C467.002 425.189 465.858 423.561 464.312 422.318C462.767 421.076 460.797 420.455 458.403 420.455C456.009 420.455 454.04 421.076 452.494 422.318C450.949 423.561 449.805 425.189 449.062 427.205C448.32 429.22 447.949 431.394 447.949 433.727C447.949 436.061 448.32 438.227 449.062 440.227C449.805 442.227 450.949 443.841 452.494 445.068C454.04 446.295 456.009 446.909 458.403 446.909ZM487.773 430V451H482.409V416.091H487.591V421.545H488.045C488.864 419.773 490.106 418.348 491.773 417.273C493.439 416.182 495.591 415.636 498.227 415.636C500.591 415.636 502.659 416.121 504.432 417.091C506.205 418.045 507.583 419.5 508.568 421.455C509.553 423.394 510.045 425.848 510.045 428.818V451H504.682V429.182C504.682 426.439 503.97 424.303 502.545 422.773C501.121 421.227 499.167 420.455 496.682 420.455C494.97 420.455 493.439 420.826 492.091 421.568C490.758 422.311 489.705 423.394 488.932 424.818C488.159 426.242 487.773 427.97 487.773 430Z" fill="black"/>
<rect x="334.5" y="219.5" width="223" height="88" rx="9.5" stroke="black"/>
<path d="M421.983 285.928H416.074L433.165 239.382H438.983L456.074 285.928H450.165L436.256 246.746H435.892L421.983 285.928ZM424.165 267.746H447.983V272.746H424.165V267.746ZM488.778 251.018C488.506 248.715 487.4 246.928 485.46 245.655C483.521 244.382 481.142 243.746 478.324 243.746C476.263 243.746 474.46 244.079 472.915 244.746C471.384 245.412 470.188 246.329 469.324 247.496C468.475 248.662 468.051 249.988 468.051 251.473C468.051 252.715 468.347 253.784 468.938 254.678C469.544 255.556 470.316 256.291 471.256 256.882C472.195 257.458 473.18 257.935 474.21 258.314C475.241 258.678 476.188 258.973 477.051 259.2L481.778 260.473C482.991 260.791 484.339 261.231 485.824 261.791C487.324 262.352 488.756 263.117 490.119 264.087C491.498 265.041 492.634 266.268 493.528 267.768C494.422 269.268 494.869 271.109 494.869 273.291C494.869 275.806 494.21 278.079 492.892 280.109C491.589 282.14 489.68 283.753 487.165 284.95C484.665 286.147 481.627 286.746 478.051 286.746C474.718 286.746 471.831 286.208 469.392 285.132C466.968 284.056 465.059 282.556 463.665 280.632C462.286 278.708 461.506 276.473 461.324 273.928H467.142C467.294 275.685 467.884 277.14 468.915 278.291C469.96 279.428 471.278 280.276 472.869 280.837C474.475 281.382 476.203 281.655 478.051 281.655C480.203 281.655 482.134 281.306 483.847 280.609C485.559 279.897 486.915 278.912 487.915 277.655C488.915 276.382 489.415 274.897 489.415 273.2C489.415 271.655 488.983 270.397 488.119 269.428C487.256 268.458 486.119 267.67 484.71 267.064C483.301 266.458 481.778 265.928 480.142 265.473L474.415 263.837C470.778 262.791 467.9 261.299 465.778 259.359C463.657 257.42 462.597 254.882 462.597 251.746C462.597 249.14 463.301 246.867 464.71 244.928C466.134 242.973 468.044 241.458 470.438 240.382C472.847 239.291 475.536 238.746 478.506 238.746C481.506 238.746 484.172 239.284 486.506 240.359C488.839 241.42 490.688 242.875 492.051 244.723C493.43 246.571 494.157 248.67 494.233 251.018H488.778ZM501.591 244.382V239.382H536.5V244.382H521.864V285.928H516.227V244.382H501.591Z" fill="black"/>
<path d="M371.5 287C368.186 287 365.5 284.314 365.5 281V247C365.5 243.686 368.186 241 371.5 241H388.5V287H371.5Z" fill="#65B0ED"/>
<circle cx="388.5" cy="252.5" r="11.5" fill="#65B0ED"/>
<circle cx="388.5" cy="275.5" r="11.5" fill="#65B0ED"/>
<path d="M362.683 287C359.37 287 356.683 284.314 356.683 281V247C356.683 243.686 359.37 241 362.683 241H379.683V287H362.683Z" fill="#DE6D77"/>
<circle cx="379.683" cy="252.5" r="11.5" fill="#DE6D77"/>
<circle cx="379.683" cy="275.5" r="11.5" fill="#DE6D77"/>
<path d="M360 287C356.686 287 354 284.314 354 281V247C354 243.686 356.686 241 360 241H371.25V287H360Z" fill="#99C27C"/>
<circle cx="371.25" cy="252.5" r="11.5" fill="#99C27C"/>
<circle cx="371.25" cy="275.5" r="11.5" fill="#99C27C"/>
<path d="M319.483 214.42C320.268 214.153 320.687 213.301 320.42 212.517L316.069 199.737C315.802 198.953 314.95 198.533 314.166 198.8C313.382 199.067 312.962 199.919 313.229 200.704L317.097 212.063L305.737 215.931C304.953 216.198 304.533 217.05 304.8 217.834C305.067 218.618 305.919 219.038 306.704 218.771L319.483 214.42ZM192.338 152.346L318.338 214.346L319.662 211.654L193.662 149.654L192.338 152.346Z" fill="black"/>
<path d="M444.939 360.061C445.525 360.646 446.475 360.646 447.061 360.061L456.607 350.515C457.192 349.929 457.192 348.979 456.607 348.393C456.021 347.808 455.071 347.808 454.485 348.393L446 356.879L437.515 348.393C436.929 347.808 435.979 347.808 435.393 348.393C434.808 348.979 434.808 349.929 435.393 350.515L444.939 360.061ZM444.5 324V359H447.5V324H444.5Z" fill="black"/>
<path d="M320.41 300.511C320.692 299.732 320.29 298.872 319.511 298.59L306.818 293.993C306.039 293.711 305.179 294.113 304.896 294.892C304.614 295.671 305.017 296.531 305.796 296.813L317.079 300.9L312.993 312.182C312.711 312.961 313.113 313.821 313.892 314.104C314.671 314.386 315.531 313.983 315.813 313.204L320.41 300.511ZM193.636 360.358L319.636 301.358L318.364 298.642L192.364 357.642L193.636 360.358Z" fill="black"/>
<path d="M679.314 182.724C679.714 181.998 679.449 181.086 678.724 180.686L666.898 174.174C666.173 173.774 665.26 174.038 664.861 174.764C664.461 175.49 664.725 176.402 665.451 176.801L675.962 182.59L670.174 193.102C669.774 193.827 670.038 194.74 670.764 195.139C671.49 195.539 672.402 195.275 672.801 194.549L679.314 182.724ZM571.417 214.441L678.417 183.441L677.583 180.559L570.583 211.559L571.417 214.441Z" fill="black"/>
<path d="M678.662 309.346C679.406 308.98 679.712 308.081 679.346 307.338L673.386 295.225C673.02 294.481 672.121 294.175 671.377 294.541C670.634 294.907 670.328 295.806 670.694 296.549L675.992 307.316L665.225 312.614C664.481 312.98 664.175 313.879 664.541 314.623C664.907 315.366 665.806 315.672 666.549 315.306L678.662 309.346ZM583.517 277.42L677.517 309.42L678.483 306.58L584.483 274.58L583.517 277.42Z" fill="black"/>
<path d="M678.029 428.5C678.857 428.484 679.516 427.8 679.5 426.971L679.243 413.474C679.227 412.646 678.543 411.987 677.714 412.003C676.886 412.018 676.227 412.703 676.243 413.531L676.472 425.529L664.474 425.757C663.646 425.773 662.987 426.457 663.003 427.286C663.018 428.114 663.703 428.773 664.531 428.757L678.029 428.5ZM569.96 325.081L676.96 428.081L679.04 425.919L572.04 322.919L569.96 325.081Z" fill="black"/>
<line x1="281.502" y1="1.49834" x2="283.498" y2="602.498" stroke="black" stroke-linecap="round" stroke-dasharray="10 10"/>
<line x1="607.5" y1="1.49998" x2="607.527" y2="602.5" stroke="black" stroke-linecap="round" stroke-dasharray="10 10"/>
<path d="M35.9453 29.0078V41.5C35.5234 42.125 34.8516 42.8281 33.9297 43.6094C33.0078 44.375 31.7344 45.0469 30.1094 45.625C28.5 46.1875 26.4219 46.4688 23.875 46.4688C21.7969 46.4688 19.8828 46.1094 18.1328 45.3906C16.3984 44.6562 14.8906 43.5938 13.6094 42.2031C12.3438 40.7969 11.3594 39.0938 10.6562 37.0938C9.96875 35.0781 9.625 32.7969 9.625 30.25V27.6016C9.625 25.0547 9.92188 22.7812 10.5156 20.7812C11.125 18.7812 12.0156 17.0859 13.1875 15.6953C14.3594 14.2891 15.7969 13.2266 17.5 12.5078C19.2031 11.7734 21.1562 11.4062 23.3594 11.4062C25.9688 11.4062 28.1484 11.8594 29.8984 12.7656C31.6641 13.6562 33.0391 14.8906 34.0234 16.4688C35.0234 18.0469 35.6641 19.8438 35.9453 21.8594H31.4219C31.2188 20.625 30.8125 19.5 30.2031 18.4844C29.6094 17.4688 28.7578 16.6562 27.6484 16.0469C26.5391 15.4219 25.1094 15.1094 23.3594 15.1094C21.7812 15.1094 20.4141 15.3984 19.2578 15.9766C18.1016 16.5547 17.1484 17.3828 16.3984 18.4609C15.6484 19.5391 15.0859 20.8438 14.7109 22.375C14.3516 23.9062 14.1719 25.6328 14.1719 27.5547V30.25C14.1719 32.2188 14.3984 33.9766 14.8516 35.5234C15.3203 37.0703 15.9844 38.3906 16.8438 39.4844C17.7031 40.5625 18.7266 41.3828 19.9141 41.9453C21.1172 42.5078 22.4453 42.7891 23.8984 42.7891C25.5078 42.7891 26.8125 42.6562 27.8125 42.3906C28.8125 42.1094 29.5938 41.7812 30.1562 41.4062C30.7188 41.0156 31.1484 40.6484 31.4453 40.3047V32.6641H23.5469V29.0078H35.9453ZM53.3125 46.4688C51.5469 46.4688 49.9453 46.1719 48.5078 45.5781C47.0859 44.9688 45.8594 44.1172 44.8281 43.0234C43.8125 41.9297 43.0312 40.6328 42.4844 39.1328C41.9375 37.6328 41.6641 35.9922 41.6641 34.2109V33.2266C41.6641 31.1641 41.9688 29.3281 42.5781 27.7188C43.1875 26.0938 44.0156 24.7188 45.0625 23.5938C46.1094 22.4688 47.2969 21.6172 48.625 21.0391C49.9531 20.4609 51.3281 20.1719 52.75 20.1719C54.5625 20.1719 56.125 20.4844 57.4375 21.1094C58.7656 21.7344 59.8516 22.6094 60.6953 23.7344C61.5391 24.8438 62.1641 26.1562 62.5703 27.6719C62.9766 29.1719 63.1797 30.8125 63.1797 32.5938V34.5391H44.2422V31H58.8438V30.6719C58.7812 29.5469 58.5469 28.4531 58.1406 27.3906C57.75 26.3281 57.125 25.4531 56.2656 24.7656C55.4062 24.0781 54.2344 23.7344 52.75 23.7344C51.7656 23.7344 50.8594 23.9453 50.0312 24.3672C49.2031 24.7734 48.4922 25.3828 47.8984 26.1953C47.3047 27.0078 46.8438 28 46.5156 29.1719C46.1875 30.3438 46.0234 31.6953 46.0234 33.2266V34.2109C46.0234 35.4141 46.1875 36.5469 46.5156 37.6094C46.8594 38.6562 47.3516 39.5781 47.9922 40.375C48.6484 41.1719 49.4375 41.7969 50.3594 42.25C51.2969 42.7031 52.3594 42.9297 53.5469 42.9297C55.0781 42.9297 56.375 42.6172 57.4375 41.9922C58.5 41.3672 59.4297 40.5312 60.2266 39.4844L62.8516 41.5703C62.3047 42.3984 61.6094 43.1875 60.7656 43.9375C59.9219 44.6875 58.8828 45.2969 57.6484 45.7656C56.4297 46.2344 54.9844 46.4688 53.3125 46.4688ZM72.5781 26.0547V46H68.2422V20.6406H72.3438L72.5781 26.0547ZM71.5469 32.3594L69.7422 32.2891C69.7578 30.5547 70.0156 28.9531 70.5156 27.4844C71.0156 26 71.7188 24.7109 72.625 23.6172C73.5312 22.5234 74.6094 21.6797 75.8594 21.0859C77.125 20.4766 78.5234 20.1719 80.0547 20.1719C81.3047 20.1719 82.4297 20.3438 83.4297 20.6875C84.4297 21.0156 85.2812 21.5469 85.9844 22.2812C86.7031 23.0156 87.25 23.9688 87.625 25.1406C88 26.2969 88.1875 27.7109 88.1875 29.3828V46H83.8281V29.3359C83.8281 28.0078 83.6328 26.9453 83.2422 26.1484C82.8516 25.3359 82.2812 24.75 81.5312 24.3906C80.7812 24.0156 79.8594 23.8281 78.7656 23.8281C77.6875 23.8281 76.7031 24.0547 75.8125 24.5078C74.9375 24.9609 74.1797 25.5859 73.5391 26.3828C72.9141 27.1797 72.4219 28.0938 72.0625 29.125C71.7188 30.1406 71.5469 31.2188 71.5469 32.3594ZM105.297 46.4688C103.531 46.4688 101.93 46.1719 100.492 45.5781C99.0703 44.9688 97.8438 44.1172 96.8125 43.0234C95.7969 41.9297 95.0156 40.6328 94.4688 39.1328C93.9219 37.6328 93.6484 35.9922 93.6484 34.2109V33.2266C93.6484 31.1641 93.9531 29.3281 94.5625 27.7188C95.1719 26.0938 96 24.7188 97.0469 23.5938C98.0938 22.4688 99.2812 21.6172 100.609 21.0391C101.938 20.4609 103.312 20.1719 104.734 20.1719C106.547 20.1719 108.109 20.4844 109.422 21.1094C110.75 21.7344 111.836 22.6094 112.68 23.7344C113.523 24.8438 114.148 26.1562 114.555 27.6719C114.961 29.1719 115.164 30.8125 115.164 32.5938V34.5391H96.2266V31H110.828V30.6719C110.766 29.5469 110.531 28.4531 110.125 27.3906C109.734 26.3281 109.109 25.4531 108.25 24.7656C107.391 24.0781 106.219 23.7344 104.734 23.7344C103.75 23.7344 102.844 23.9453 102.016 24.3672C101.188 24.7734 100.477 25.3828 99.8828 26.1953C99.2891 27.0078 98.8281 28 98.5 29.1719C98.1719 30.3438 98.0078 31.6953 98.0078 33.2266V34.2109C98.0078 35.4141 98.1719 36.5469 98.5 37.6094C98.8438 38.6562 99.3359 39.5781 99.9766 40.375C100.633 41.1719 101.422 41.7969 102.344 42.25C103.281 42.7031 104.344 42.9297 105.531 42.9297C107.062 42.9297 108.359 42.6172 109.422 41.9922C110.484 41.3672 111.414 40.5312 112.211 39.4844L114.836 41.5703C114.289 42.3984 113.594 43.1875 112.75 43.9375C111.906 44.6875 110.867 45.2969 109.633 45.7656C108.414 46.2344 106.969 46.4688 105.297 46.4688ZM124.562 24.625V46H120.227V20.6406H124.445L124.562 24.625ZM132.484 20.5L132.461 24.5312C132.102 24.4531 131.758 24.4062 131.43 24.3906C131.117 24.3594 130.758 24.3438 130.352 24.3438C129.352 24.3438 128.469 24.5 127.703 24.8125C126.938 25.125 126.289 25.5625 125.758 26.125C125.227 26.6875 124.805 27.3594 124.492 28.1406C124.195 28.9062 124 29.75 123.906 30.6719L122.688 31.375C122.688 29.8438 122.836 28.4062 123.133 27.0625C123.445 25.7188 123.922 24.5312 124.562 23.5C125.203 22.4531 126.016 21.6406 127 21.0625C128 20.4688 129.188 20.1719 130.562 20.1719C130.875 20.1719 131.234 20.2109 131.641 20.2891C132.047 20.3516 132.328 20.4219 132.484 20.5ZM150.508 41.6641V28.6094C150.508 27.6094 150.305 26.7422 149.898 26.0078C149.508 25.2578 148.914 24.6797 148.117 24.2734C147.32 23.8672 146.336 23.6641 145.164 23.6641C144.07 23.6641 143.109 23.8516 142.281 24.2266C141.469 24.6016 140.828 25.0938 140.359 25.7031C139.906 26.3125 139.68 26.9688 139.68 27.6719H135.344C135.344 26.7656 135.578 25.8672 136.047 24.9766C136.516 24.0859 137.188 23.2812 138.062 22.5625C138.953 21.8281 140.016 21.25 141.25 20.8281C142.5 20.3906 143.891 20.1719 145.422 20.1719C147.266 20.1719 148.891 20.4844 150.297 21.1094C151.719 21.7344 152.828 22.6797 153.625 23.9453C154.438 25.1953 154.844 26.7656 154.844 28.6562V40.4688C154.844 41.3125 154.914 42.2109 155.055 43.1641C155.211 44.1172 155.438 44.9375 155.734 45.625V46H151.211C150.992 45.5 150.82 44.8359 150.695 44.0078C150.57 43.1641 150.508 42.3828 150.508 41.6641ZM151.258 30.625L151.305 33.6719H146.922C145.688 33.6719 144.586 33.7734 143.617 33.9766C142.648 34.1641 141.836 34.4531 141.18 34.8438C140.523 35.2344 140.023 35.7266 139.68 36.3203C139.336 36.8984 139.164 37.5781 139.164 38.3594C139.164 39.1562 139.344 39.8828 139.703 40.5391C140.062 41.1953 140.602 41.7188 141.32 42.1094C142.055 42.4844 142.953 42.6719 144.016 42.6719C145.344 42.6719 146.516 42.3906 147.531 41.8281C148.547 41.2656 149.352 40.5781 149.945 39.7656C150.555 38.9531 150.883 38.1641 150.93 37.3984L152.781 39.4844C152.672 40.1406 152.375 40.8672 151.891 41.6641C151.406 42.4609 150.758 43.2266 149.945 43.9609C149.148 44.6797 148.195 45.2812 147.086 45.7656C145.992 46.2344 144.758 46.4688 143.383 46.4688C141.664 46.4688 140.156 46.1328 138.859 45.4609C137.578 44.7891 136.578 43.8906 135.859 42.7656C135.156 41.625 134.805 40.3516 134.805 38.9453C134.805 37.5859 135.07 36.3906 135.602 35.3594C136.133 34.3125 136.898 33.4453 137.898 32.7578C138.898 32.0547 140.102 31.5234 141.508 31.1641C142.914 30.8047 144.484 30.625 146.219 30.625H151.258ZM172.281 20.6406V23.9688H158.57V20.6406H172.281ZM163.211 14.4766H167.547V39.7188C167.547 40.5781 167.68 41.2266 167.945 41.6641C168.211 42.1016 168.555 42.3906 168.977 42.5312C169.398 42.6719 169.852 42.7422 170.336 42.7422C170.695 42.7422 171.07 42.7109 171.461 42.6484C171.867 42.5703 172.172 42.5078 172.375 42.4609L172.398 46C172.055 46.1094 171.602 46.2109 171.039 46.3047C170.492 46.4141 169.828 46.4688 169.047 46.4688C167.984 46.4688 167.008 46.2578 166.117 45.8359C165.227 45.4141 164.516 44.7109 163.984 43.7266C163.469 42.7266 163.211 41.3828 163.211 39.6953V14.4766ZM175.75 33.6016V33.0625C175.75 31.2344 176.016 29.5391 176.547 27.9766C177.078 26.3984 177.844 25.0312 178.844 23.875C179.844 22.7031 181.055 21.7969 182.477 21.1562C183.898 20.5 185.492 20.1719 187.258 20.1719C189.039 20.1719 190.641 20.5 192.062 21.1562C193.5 21.7969 194.719 22.7031 195.719 23.875C196.734 25.0312 197.508 26.3984 198.039 27.9766C198.57 29.5391 198.836 31.2344 198.836 33.0625V33.6016C198.836 35.4297 198.57 37.125 198.039 38.6875C197.508 40.25 196.734 41.6172 195.719 42.7891C194.719 43.9453 193.508 44.8516 192.086 45.5078C190.68 46.1484 189.086 46.4688 187.305 46.4688C185.523 46.4688 183.922 46.1484 182.5 45.5078C181.078 44.8516 179.859 43.9453 178.844 42.7891C177.844 41.6172 177.078 40.25 176.547 38.6875C176.016 37.125 175.75 35.4297 175.75 33.6016ZM180.086 33.0625V33.6016C180.086 34.8672 180.234 36.0625 180.531 37.1875C180.828 38.2969 181.273 39.2812 181.867 40.1406C182.477 41 183.234 41.6797 184.141 42.1797C185.047 42.6641 186.102 42.9062 187.305 42.9062C188.492 42.9062 189.531 42.6641 190.422 42.1797C191.328 41.6797 192.078 41 192.672 40.1406C193.266 39.2812 193.711 38.2969 194.008 37.1875C194.32 36.0625 194.477 34.8672 194.477 33.6016V33.0625C194.477 31.8125 194.32 30.6328 194.008 29.5234C193.711 28.3984 193.258 27.4062 192.648 26.5469C192.055 25.6719 191.305 24.9844 190.398 24.4844C189.508 23.9844 188.461 23.7344 187.258 23.7344C186.07 23.7344 185.023 23.9844 184.117 24.4844C183.227 24.9844 182.477 25.6719 181.867 26.5469C181.273 27.4062 180.828 28.3984 180.531 29.5234C180.234 30.6328 180.086 31.8125 180.086 33.0625ZM208.609 24.625V46H204.273V20.6406H208.492L208.609 24.625ZM216.531 20.5L216.508 24.5312C216.148 24.4531 215.805 24.4062 215.477 24.3906C215.164 24.3594 214.805 24.3438 214.398 24.3438C213.398 24.3438 212.516 24.5 211.75 24.8125C210.984 25.125 210.336 25.5625 209.805 26.125C209.273 26.6875 208.852 27.3594 208.539 28.1406C208.242 28.9062 208.047 29.75 207.953 30.6719L206.734 31.375C206.734 29.8438 206.883 28.4062 207.18 27.0625C207.492 25.7188 207.969 24.5312 208.609 23.5C209.25 22.4531 210.062 21.6406 211.047 21.0625C212.047 20.4688 213.234 20.1719 214.609 20.1719C214.922 20.1719 215.281 20.2109 215.688 20.2891C216.094 20.3516 216.375 20.4219 216.531 20.5Z" fill="black"/>
<path d="M374.641 11.875H379.023L390.203 39.6953L401.359 11.875H405.766L391.891 46H388.469L374.641 11.875ZM373.211 11.875H377.078L377.711 32.6875V46H373.211V11.875ZM403.305 11.875H407.172V46H402.672V32.6875L403.305 11.875ZM413.312 33.6016V33.0625C413.312 31.2344 413.578 29.5391 414.109 27.9766C414.641 26.3984 415.406 25.0312 416.406 23.875C417.406 22.7031 418.617 21.7969 420.039 21.1562C421.461 20.5 423.055 20.1719 424.82 20.1719C426.602 20.1719 428.203 20.5 429.625 21.1562C431.062 21.7969 432.281 22.7031 433.281 23.875C434.297 25.0312 435.07 26.3984 435.602 27.9766C436.133 29.5391 436.398 31.2344 436.398 33.0625V33.6016C436.398 35.4297 436.133 37.125 435.602 38.6875C435.07 40.25 434.297 41.6172 433.281 42.7891C432.281 43.9453 431.07 44.8516 429.648 45.5078C428.242 46.1484 426.648 46.4688 424.867 46.4688C423.086 46.4688 421.484 46.1484 420.062 45.5078C418.641 44.8516 417.422 43.9453 416.406 42.7891C415.406 41.6172 414.641 40.25 414.109 38.6875C413.578 37.125 413.312 35.4297 413.312 33.6016ZM417.648 33.0625V33.6016C417.648 34.8672 417.797 36.0625 418.094 37.1875C418.391 38.2969 418.836 39.2812 419.43 40.1406C420.039 41 420.797 41.6797 421.703 42.1797C422.609 42.6641 423.664 42.9062 424.867 42.9062C426.055 42.9062 427.094 42.6641 427.984 42.1797C428.891 41.6797 429.641 41 430.234 40.1406C430.828 39.2812 431.273 38.2969 431.57 37.1875C431.883 36.0625 432.039 34.8672 432.039 33.6016V33.0625C432.039 31.8125 431.883 30.6328 431.57 29.5234C431.273 28.3984 430.82 27.4062 430.211 26.5469C429.617 25.6719 428.867 24.9844 427.961 24.4844C427.07 23.9844 426.023 23.7344 424.82 23.7344C423.633 23.7344 422.586 23.9844 421.68 24.4844C420.789 24.9844 420.039 25.6719 419.43 26.5469C418.836 27.4062 418.391 28.3984 418.094 29.5234C417.797 30.6328 417.648 31.8125 417.648 33.0625ZM457.82 41.0781V10H462.18V46H458.195L457.82 41.0781ZM440.758 33.6016V33.1094C440.758 31.1719 440.992 29.4141 441.461 27.8359C441.945 26.2422 442.625 24.875 443.5 23.7344C444.391 22.5938 445.445 21.7188 446.664 21.1094C447.898 20.4844 449.273 20.1719 450.789 20.1719C452.383 20.1719 453.773 20.4531 454.961 21.0156C456.164 21.5625 457.18 22.3672 458.008 23.4297C458.852 24.4766 459.516 25.7422 460 27.2266C460.484 28.7109 460.82 30.3906 461.008 32.2656V34.4219C460.836 36.2812 460.5 37.9531 460 39.4375C459.516 40.9219 458.852 42.1875 458.008 43.2344C457.18 44.2812 456.164 45.0859 454.961 45.6484C453.758 46.1953 452.352 46.4688 450.742 46.4688C449.258 46.4688 447.898 46.1484 446.664 45.5078C445.445 44.8672 444.391 43.9688 443.5 42.8125C442.625 41.6562 441.945 40.2969 441.461 38.7344C440.992 37.1562 440.758 35.4453 440.758 33.6016ZM445.117 33.1094V33.6016C445.117 34.8672 445.242 36.0547 445.492 37.1641C445.758 38.2734 446.164 39.25 446.711 40.0938C447.258 40.9375 447.953 41.6016 448.797 42.0859C449.641 42.5547 450.648 42.7891 451.82 42.7891C453.258 42.7891 454.438 42.4844 455.359 41.875C456.297 41.2656 457.047 40.4609 457.609 39.4609C458.172 38.4609 458.609 37.375 458.922 36.2031V30.5547C458.734 29.6953 458.461 28.8672 458.102 28.0703C457.758 27.2578 457.305 26.5391 456.742 25.9141C456.195 25.2734 455.516 24.7656 454.703 24.3906C453.906 24.0156 452.961 23.8281 451.867 23.8281C450.68 23.8281 449.656 24.0781 448.797 24.5781C447.953 25.0625 447.258 25.7344 446.711 26.5938C446.164 27.4375 445.758 28.4219 445.492 29.5469C445.242 30.6562 445.117 31.8438 445.117 33.1094ZM479.453 46.4688C477.688 46.4688 476.086 46.1719 474.648 45.5781C473.227 44.9688 472 44.1172 470.969 43.0234C469.953 41.9297 469.172 40.6328 468.625 39.1328C468.078 37.6328 467.805 35.9922 467.805 34.2109V33.2266C467.805 31.1641 468.109 29.3281 468.719 27.7188C469.328 26.0938 470.156 24.7188 471.203 23.5938C472.25 22.4688 473.438 21.6172 474.766 21.0391C476.094 20.4609 477.469 20.1719 478.891 20.1719C480.703 20.1719 482.266 20.4844 483.578 21.1094C484.906 21.7344 485.992 22.6094 486.836 23.7344C487.68 24.8438 488.305 26.1562 488.711 27.6719C489.117 29.1719 489.32 30.8125 489.32 32.5938V34.5391H470.383V31H484.984V30.6719C484.922 29.5469 484.688 28.4531 484.281 27.3906C483.891 26.3281 483.266 25.4531 482.406 24.7656C481.547 24.0781 480.375 23.7344 478.891 23.7344C477.906 23.7344 477 23.9453 476.172 24.3672C475.344 24.7734 474.633 25.3828 474.039 26.1953C473.445 27.0078 472.984 28 472.656 29.1719C472.328 30.3438 472.164 31.6953 472.164 33.2266V34.2109C472.164 35.4141 472.328 36.5469 472.656 37.6094C473 38.6562 473.492 39.5781 474.133 40.375C474.789 41.1719 475.578 41.7969 476.5 42.25C477.438 42.7031 478.5 42.9297 479.688 42.9297C481.219 42.9297 482.516 42.6172 483.578 41.9922C484.641 41.3672 485.57 40.5312 486.367 39.4844L488.992 41.5703C488.445 42.3984 487.75 43.1875 486.906 43.9375C486.062 44.6875 485.023 45.2969 483.789 45.7656C482.57 46.2344 481.125 46.4688 479.453 46.4688ZM499.094 10V46H494.734V10H499.094Z" fill="black"/>
<path d="M700.086 40.8203L710.141 11.875H715.039L702.406 46H698.914L700.086 40.8203ZM690.688 11.875L700.648 40.8203L701.891 46H698.398L685.789 11.875H690.688ZM723.688 20.6406V46H719.328V20.6406H723.688ZM719 13.9141C719 13.2109 719.211 12.6172 719.633 12.1328C720.07 11.6484 720.711 11.4062 721.555 11.4062C722.383 11.4062 723.016 11.6484 723.453 12.1328C723.906 12.6172 724.133 13.2109 724.133 13.9141C724.133 14.5859 723.906 15.1641 723.453 15.6484C723.016 16.1172 722.383 16.3516 721.555 16.3516C720.711 16.3516 720.07 16.1172 719.633 15.6484C719.211 15.1641 719 14.5859 719 13.9141ZM741.172 46.4688C739.406 46.4688 737.805 46.1719 736.367 45.5781C734.945 44.9688 733.719 44.1172 732.688 43.0234C731.672 41.9297 730.891 40.6328 730.344 39.1328C729.797 37.6328 729.523 35.9922 729.523 34.2109V33.2266C729.523 31.1641 729.828 29.3281 730.438 27.7188C731.047 26.0938 731.875 24.7188 732.922 23.5938C733.969 22.4688 735.156 21.6172 736.484 21.0391C737.812 20.4609 739.188 20.1719 740.609 20.1719C742.422 20.1719 743.984 20.4844 745.297 21.1094C746.625 21.7344 747.711 22.6094 748.555 23.7344C749.398 24.8438 750.023 26.1562 750.43 27.6719C750.836 29.1719 751.039 30.8125 751.039 32.5938V34.5391H732.102V31H746.703V30.6719C746.641 29.5469 746.406 28.4531 746 27.3906C745.609 26.3281 744.984 25.4531 744.125 24.7656C743.266 24.0781 742.094 23.7344 740.609 23.7344C739.625 23.7344 738.719 23.9453 737.891 24.3672C737.062 24.7734 736.352 25.3828 735.758 26.1953C735.164 27.0078 734.703 28 734.375 29.1719C734.047 30.3438 733.883 31.6953 733.883 33.2266V34.2109C733.883 35.4141 734.047 36.5469 734.375 37.6094C734.719 38.6562 735.211 39.5781 735.852 40.375C736.508 41.1719 737.297 41.7969 738.219 42.25C739.156 42.7031 740.219 42.9297 741.406 42.9297C742.938 42.9297 744.234 42.6172 745.297 41.9922C746.359 41.3672 747.289 40.5312 748.086 39.4844L750.711 41.5703C750.164 42.3984 749.469 43.1875 748.625 43.9375C747.781 44.6875 746.742 45.2969 745.508 45.7656C744.289 46.2344 742.844 46.4688 741.172 46.4688ZM762.523 41.5L769.039 20.6406H771.898L771.336 24.7891L764.703 46H761.914L762.523 41.5ZM758.141 20.6406L763.695 41.7344L764.094 46H761.164L753.805 20.6406H758.141ZM778.133 41.5703L783.43 20.6406H787.742L780.383 46H777.477L778.133 41.5703ZM772.531 20.6406L778.906 41.1484L779.633 46H776.867L770.047 24.7422L769.484 20.6406H772.531Z" fill="black"/>
</svg>
